<svg xmlns="http://www.w3.org/2000/svg" viewBox="0 0 4.2333332 4.2333335">
  <defs>
    <linearGradient id="codeberg-berg" x1="42519.285" y1="-7078.7891" x2="42575.336" y2="-6966.9307" gradientUnits="userSpaceOnUse">
      <stop stop-color="#2185d0" stop-opacity="0" offset="0"/>
      <stop stop-color="#2185d0" stop-opacity=".3" offset=".49517274"/>
      <stop stop-color="#2185d0" stop-opacity=".3" offset="1"/>
    </linearGradient>
  </defs>
  <g transform="matrix(.06551432 0 0 .06551432 -2.232417 -1.431776)">
    <path fill="url(#codeberg-berg)" d="m42519.285-7078.7891a.76086879.56791688 0 0 0-.738.6739l33.586 125.8886a87.182358 87.182358 0 0 0 39.381-33.7636l-71.565-92.5196a.76086879.56791688 0 0 0-.664-.2793z" transform="matrix(.37058478 0 0 .37058478 -15690.065 2662.0533)"/>
    <path fill="#2185d0" d="M11249.461-1883.6961c-12.74 0-23.067 10.3275-23.067 23.0671 0 4.3335 1.22 8.5795 3.522 12.2514l19.232-24.8636c.138-.1796.486-.1796.624 0l19.233 24.8646c2.302-3.6721 3.523-7.9185 3.523-12.2524 0-12.7396-10.327-23.0671-23.067-23.0671z" transform="matrix(1.4006354 0 0 1.4006354 -15690.065 2662.0533)"/>
  </g>
</svg>
